<svg width="972" height="763" viewBox="0 0 972 763" fill="none" xmlns="http://www.w3.org/2000/svg">
<path d="M81.2097 60.4301C76.2097 66.3401 71.5297 74.5201 75.2097 82.5901C82.3497 98.4001 108.54 90.6901 117.89 105.43C120.69 109.84 121.07 115.23 120.42 120.04C119.16 129.45 114.5 137.44 111.28 146.04C108.06 154.64 106.39 165.04 110.93 174.12C115.3 182.91 124.51 188.46 133.43 190.67C142.35 192.88 151.29 192.38 160.2 192.67C170.785 193.085 181.295 194.634 191.55 197.29C196.062 198.263 200.39 199.951 204.37 202.29C208.92 205.2 212.6 209.47 216.2 213.67L248.2 250.96C252.45 255.96 256.79 260.96 262.06 264.63C268.14 268.86 275.06 271.01 281.87 273.08C296.52 277.56 311.87 282.08 325.87 279.01C339.87 275.94 351.62 262.56 348.12 247.07C344.79 232.32 329.77 221.86 324.71 207.41C316.71 184.64 336.46 163.52 330.53 140.35C324.85 118.13 299.67 106.67 285.67 87.8601C275.67 74.3801 271.73 57.5201 262.99 43.1801C250.4 22.5201 228.44 8.81006 206.49 3.61006C184.54 -1.58994 162.47 0.920057 141.93 6.10006C133.23 8.31006 124.53 11.1001 117.63 16.6201C110.3 22.4901 109.45 31.3901 104.11 38.4801C97.9197 46.7401 87.9497 52.4201 81.2097 60.4301Z" fill="#1A374D"/>
<path d="M112.36 22.83C112.36 22.83 282.03 156.33 339.12 272.39" stroke="#B2B2B2" stroke-width="2" stroke-miterlimit="10"/>
<path d="M75.75 83.46C75.75 83.46 158.12 56.78 203.3 103.1" stroke="#B3B3B3" stroke-width="2" stroke-miterlimit="10"/>
<path d="M113.55 178.4C113.55 178.4 211.66 109.4 236.46 136.31" stroke="#B2B2B2" stroke-width="2" stroke-miterlimit="10"/>
<path d="M206.14 3.31006C206.14 3.31006 189.23 46.7001 210.14 109.77" stroke="#B2B2B2" stroke-width="2" stroke-miterlimit="10"/>
<path d="M685.181 358.621C692.331 361.588 701.546 363.56 708.116 357.601C721.008 345.993 705.702 323.386 716.902 309.998C720.253 305.99 725.272 303.99 730.052 303.147C739.4 301.487 748.428 303.498 757.6 303.951C766.772 304.405 777.187 302.835 784.458 295.75C791.504 288.915 793.992 278.454 793.386 269.284C792.78 260.114 789.586 251.749 787.154 243.173C784.332 232.962 782.613 222.479 782.026 211.902C781.582 207.307 781.874 202.671 782.893 198.168C784.282 192.949 787.232 188.145 790.139 183.439L815.938 141.618C819.409 136.05 822.854 130.395 824.748 124.259C826.93 117.181 826.875 109.935 826.777 102.818C826.592 87.4994 826.232 71.5018 819.052 59.0974C811.872 46.6929 795.553 39.5658 781.86 47.6086C768.82 55.2644 763.421 72.7532 751.192 81.9659C731.931 96.5086 705.807 84.1126 685.536 96.8048C666.094 108.97 662.83 136.442 649.165 155.497C639.363 169.121 624.498 178 613.493 190.685C597.638 208.959 591.251 234.047 592.969 256.539C594.687 279.031 603.787 299.294 614.965 317.288C619.715 324.904 625.017 332.345 632.373 337.24C640.194 342.439 648.931 340.544 657.309 343.476C667.059 346.862 675.501 354.634 685.181 358.621Z" fill="#1A374D"/>
<path d="M639.892 340.373C639.892 340.373 715.502 138.152 808.718 48.4859" stroke="#B2B2B2" stroke-width="2" stroke-miterlimit="10"/>
<path d="M708.781 356.822C708.781 356.822 658.326 286.459 688.722 229.337" stroke="#B3B3B3" stroke-width="2" stroke-miterlimit="10"/>
<path d="M787.739 291.953C787.739 291.953 692.183 219.458 710.281 187.652" stroke="#B2B2B2" stroke-width="2" stroke-miterlimit="10"/>
<path d="M592.79 256.964C592.79 256.964 639.267 259.885 692.997 220.794" stroke="#B2B2B2" stroke-width="2" stroke-miterlimit="10"/>
<path d="M330.19 141.1C330.19 141.1 317.38 169.83 258.29 159.78" stroke="#535461" stroke-width="2" stroke-miterlimit="10"/>
<path d="M248.98 247.53C248.98 247.53 294.45 202.05 280.55 185.53" stroke="#535461" stroke-width="2" stroke-miterlimit="10"/>
<path opacity="0.1" d="M485.85 762.21C754.178 762.21 971.7 743.818 971.7 721.13C971.7 698.442 754.178 680.05 485.85 680.05C217.522 680.05 0 698.442 0 721.13C0 743.818 217.522 762.21 485.85 762.21Z" fill="#476AE7"/>
<path d="M863.03 397.24C860.96 391.18 857.97 383.5 855.61 381.69C855.466 381.574 855.308 381.477 855.14 381.4H854.85V373.91L849.27 374.8C848.383 372.094 847.715 369.322 847.27 366.51C847.807 367.048 848.492 367.415 849.238 367.565C849.984 367.714 850.757 367.64 851.46 367.35C851.37 367.2 851.29 367.04 851.21 366.88L851.46 366.77C850.581 365.221 850.116 363.471 850.11 361.69C850.155 360.063 850.414 358.449 850.88 356.89C851.88 353.44 853.57 350.22 854.51 346.75C855.11 344.517 855.393 342.211 855.35 339.9C855.381 335.982 854.49 332.111 852.75 328.6C852.31 327.586 851.622 326.699 850.75 326.02C849.965 325.584 849.157 325.19 848.33 324.84C846.943 323.906 845.748 322.714 844.81 321.33C840.846 316.502 835.539 312.959 829.56 311.15C828.002 310.568 826.311 310.433 824.68 310.76C820.93 311.76 819.57 316.41 816.53 318.85C813.85 321 810.17 321.22 806.8 321.94C803.43 322.66 800.04 324.09 797.74 326.69C796.155 328.502 795.291 330.833 795.31 333.24C795.218 334.365 795.416 335.494 795.885 336.52C796.354 337.546 797.079 338.434 797.99 339.1C799.028 339.78 800.204 340.223 801.433 340.396C802.662 340.569 803.915 340.468 805.1 340.1C804.173 343.301 803.918 346.659 804.351 349.963C804.783 353.267 805.894 356.446 807.613 359.301C809.332 362.155 811.623 364.623 814.342 366.551C817.06 368.478 820.147 369.823 823.41 370.5L824.06 371.67C826.07 375.412 827.595 379.394 828.6 383.52C823.46 386.43 817.85 389.16 814.46 389.42C814.324 390.745 814.076 392.056 813.72 393.34C812.927 396.559 811.405 399.553 809.27 402.09C804.66 407.27 783.93 446.43 783.93 446.43C783.93 446.43 783.28 447.99 782.21 450.65C769.34 452.23 748.33 454.51 742.47 453.34L719.47 431.46C719.47 431.46 712.03 437.14 712.68 444.04L708.59 440.1C708.59 440.1 686.71 456.8 721.26 467.74L773.83 473.84C768.83 488.95 764.15 506.54 765.6 516.11H766.03C767.035 516.109 768.037 516.032 769.03 515.88L768.94 517.58L763.85 608.27C763.85 608.27 762.7 624.97 778.25 632.45C778.25 632.45 797.25 688.3 789.77 694.64C789.77 694.64 790.66 695.11 792.16 695.76L776.53 709.61C776.53 709.61 765.01 712.49 758.68 711.91C757.568 711.757 756.438 712.02 755.507 712.647C754.575 713.274 753.907 714.222 753.63 715.31C753.63 715.43 753.63 715.55 753.57 715.67V715.82C753.57 715.94 753.57 716.06 753.57 716.19C753.57 716.32 753.57 716.28 753.57 716.33C753.57 716.38 753.57 716.54 753.57 716.65C753.57 716.76 753.57 716.74 753.57 716.78C753.57 716.82 753.57 717.03 753.64 717.15V717.29C753.673 717.423 753.717 717.557 753.77 717.69L753.82 717.81C753.87 717.94 753.93 718.07 754 718.2V718.29C754.07 718.42 754.15 718.54 754.23 718.67L754.3 718.78C754.393 718.913 754.497 719.047 754.61 719.18L754.7 719.28C754.82 719.42 754.95 719.55 755.08 719.68L755.14 719.73L755.57 720.1L755.66 720.17C755.82 720.3 756 720.42 756.18 720.54L756.3 720.62C756.49 720.74 756.69 720.86 756.9 720.97H756.99L757.64 721.29H757.73L758.49 721.59L758.65 721.65L759.48 721.92H759.62L760.53 722.16H760.6L761.6 722.36H761.8L762.88 722.52H763.09L764.31 722.64C766.68 722.82 769.87 722.89 773.56 722.87C773.56 722.87 773.56 722.96 773.56 723.01C773.56 723.06 773.56 723.22 773.56 723.33V723.46C773.56 723.58 773.56 723.71 773.63 723.83V723.97C773.664 724.103 773.707 724.237 773.76 724.37L773.81 724.49C773.86 724.62 773.92 724.75 773.99 724.88V724.97C774.06 725.1 774.14 725.22 774.22 725.35L774.29 725.46C774.383 725.593 774.487 725.727 774.6 725.86L774.69 725.96C774.81 726.1 774.94 726.23 775.07 726.36L775.13 726.41L775.56 726.78L775.65 726.85C775.81 726.98 775.99 727.1 776.17 727.22L776.3 727.3C776.49 727.42 776.69 727.54 776.9 727.65H776.99L777.64 727.97H777.73L778.49 728.27L778.65 728.33L779.48 728.6H779.62L780.53 728.84H780.6L781.6 729.04H781.8L782.88 729.2H783.09L784.31 729.32C799.31 730.47 847.07 727.02 847.07 727.02V726.89V726.72C847.54 724.49 849.84 711.53 841.68 701.95C841.92 701.7 842.16 701.43 842.38 701.15C842.38 701.15 836.05 690.21 839.5 686.75C842.95 683.29 822.23 623.41 822.23 623.41C822.23 623.41 811.29 606.14 817.62 586.56C823.95 566.98 817.04 545.68 817.04 545.68C817.04 545.68 832.14 541.19 832.45 522.6C832.45 522.04 832.45 521.46 832.45 520.87C832.781 520.917 833.116 520.937 833.45 520.93C833.663 520.945 833.877 520.945 834.09 520.93C834.09 520.93 831.21 510.57 834.67 503.08C838.13 495.59 845.61 502.5 852.52 471.99C857.52 449.91 861.92 424.51 863.97 412.15C864.857 407.177 864.534 402.063 863.03 397.24V397.24ZM731.62 462.02L726.37 457.02C728.11 457.74 730.04 458.45 732.2 459.13L752 461.43C743.16 462.23 734.95 462.68 731.62 462.02Z" fill="url(#paint0_linear_820_179)"/>
<path d="M781.74 459.1C781.74 459.1 741.01 464.76 732.52 463.1L709.85 441.54C709.85 441.54 688.35 457.95 722.3 468.69L785.7 476.1L781.74 459.1Z" fill="#FDC2CC"/>
<path opacity="0.05" d="M781.74 459.1C781.74 459.1 741.01 464.76 732.52 463.1L709.85 441.54C709.85 441.54 688.35 457.95 722.3 468.69L785.7 476.1L781.74 459.1Z" fill="black"/>
<path d="M796.45 688.75L776.65 706.29C776.65 706.29 765.34 709.12 759.11 708.55C752.88 707.98 750.06 718.17 764.77 719.3C779.48 720.43 826.43 717.04 826.43 717.04C826.43 717.04 830.96 698.94 817.38 688.75H796.45Z" fill="#25252C"/>
<path opacity="0.05" d="M796.399 689L776.599 706.54C776.599 706.54 765.289 709.37 759.059 708.8C752.829 708.23 750.009 718.42 764.719 719.55C779.429 720.68 826.379 717.29 826.379 717.29C826.379 717.29 830.909 699.19 817.329 689H796.399Z" fill="#C7C7C7"/>
<path opacity="0.3" d="M827.14 709.21C827.106 711.272 826.869 713.325 826.43 715.34C826.43 715.34 779.43 718.73 764.77 717.6C757.7 717.06 754.69 714.42 754.15 711.89C753.51 714.79 756.07 718.63 764.77 719.3C779.48 720.43 826.43 717.04 826.43 717.04C826.981 714.468 827.219 711.839 827.14 709.21V709.21Z" fill="white"/>
<path d="M819.64 368C819.64 368 832.09 385.54 827.56 397.42C823.03 409.3 851.32 384.97 851.32 384.97C851.32 384.97 842.27 369.13 846.79 352.16L819.64 368Z" fill="#FDC2CC"/>
<path d="M816.25 695.54L796.45 713.1C796.45 713.1 785.14 715.93 778.91 715.36C772.68 714.79 769.85 724.96 784.57 726.1C799.29 727.24 846.23 723.84 846.23 723.84C846.23 723.84 850.76 705.74 837.18 695.55L816.25 695.54Z" fill="#25252C"/>
<path d="M821.91 691.58C818.96 695.22 814.8 696.58 810.45 696.83C800.56 697.3 789.67 691.58 789.67 691.58C797.02 685.36 778.36 630.48 778.36 630.48C763.09 623.13 764.22 606.72 764.22 606.72L769.22 517.65L770.47 495.28L786.31 485.66L798.8 495.24L810.64 504.33C811.41 507.22 811.905 510.177 812.12 513.16C813.49 533.95 797.06 538.84 797.06 538.84C797.06 538.84 803.85 559.77 797.63 579C791.41 598.23 802.16 615.2 802.16 615.2C802.16 615.2 822.53 674.03 819.16 677.43C815.79 680.83 821.91 691.58 821.91 691.58Z" fill="#3E3B4F"/>
<path opacity="0.05" d="M821.709 692.92C818.759 696.56 814.599 697.92 810.249 698.17C800.359 698.64 789.469 692.92 789.469 692.92C796.819 686.7 778.159 631.82 778.159 631.82C762.889 624.47 764.019 608.06 764.019 608.06L769.019 518.99L770.269 496.62L786.109 487L798.599 496.58L810.439 505.67C811.208 508.56 811.704 511.517 811.919 514.5C813.289 535.29 796.859 540.18 796.859 540.18C796.859 540.18 803.649 561.11 797.429 580.34C791.209 599.57 801.959 616.54 801.959 616.54C801.959 616.54 822.329 675.37 818.959 678.77C815.589 682.17 821.709 692.92 821.709 692.92Z" fill="#BEB2B2"/>
<path d="M841.71 698.37C832.09 710.25 809.47 698.37 809.47 698.37C809.931 697.952 810.276 697.421 810.47 696.83C814.62 685.55 796.47 631.62 796.47 631.62C781.2 624.27 779.47 606.73 779.47 606.73L775.47 516.08L774.95 504.34L798.75 495.25L806.06 492.46L830.39 511.1C831.444 514.954 831.968 518.934 831.95 522.93C831.65 541.22 816.85 545.63 816.85 545.63C816.85 545.63 823.64 566.56 817.42 585.79C811.2 605.02 821.95 621.99 821.95 621.99C821.95 621.99 842.32 680.82 838.95 684.22C835.58 687.62 841.71 698.37 841.71 698.37Z" fill="#3E3B4F"/>
<path opacity="0.1" d="M831.95 522.95C827.06 522.25 817.16 516.36 812.07 513.16C810.13 511.94 808.89 511.16 808.89 511.16C808.89 511.16 803.8 497.02 790.22 507.77C785.804 511.352 780.818 514.168 775.47 516.1C773.424 516.824 771.315 517.353 769.17 517.68L770.42 495.31L786.26 485.69L798.75 495.27L806.06 492.48L830.39 511.1C831.445 514.961 831.97 518.948 831.95 522.95V522.95Z" fill="black"/>
<path d="M862.57 414.43C860.57 426.57 856.23 451.52 851.32 473.22C844.53 503.22 837.18 496.41 833.78 503.77C830.38 511.13 833.21 521.31 833.21 521.31C827.55 521.88 808.88 509.43 808.88 509.43C808.88 509.43 803.79 495.29 790.21 506.04C776.63 516.79 765.88 516.22 765.88 516.22C763.05 497.55 783.98 447.77 783.98 447.77C783.98 447.77 804.37 409.3 808.85 404.21C810.947 401.716 812.443 398.774 813.22 395.61C813.567 394.349 813.808 393.061 813.94 391.76C821.29 391.19 839.4 378.76 839.4 378.76L853.54 376.5V383.85C853.705 383.924 853.859 384.018 854 384.13C856.33 385.91 859.26 393.46 861.29 399.41C862.946 404.235 863.386 409.394 862.57 414.43V414.43Z" fill="#80BDF6"/>
<path opacity="0.1" d="M851.32 391.2C851.32 391.2 836.61 379.32 814.55 417.79C792.49 456.26 787.4 450.03 787.4 450.03C787.4 450.03 791.93 467.03 789.66 470.4C789.66 470.4 804.93 469.27 810.59 470.4C816.25 471.53 851.32 427.4 851.32 427.4C851.32 427.4 869.43 402.51 851.32 391.2Z" fill="black"/>
<path opacity="0.1" d="M850.76 388.93C850.76 388.93 836.05 377.1 813.99 415.52C791.93 453.94 786.85 447.77 786.85 447.77C786.85 447.77 804.37 467 810.03 468.1C815.69 469.2 850.76 425.1 850.76 425.1C850.76 425.1 868.85 400.25 850.76 388.93Z" fill="black"/>
<path opacity="0.1" d="M789.14 466.72C789.37 462.53 787.79 455.16 786.88 451.34C790.32 450.89 792.49 450.59 792.49 450.59L796.49 467.59L789.14 466.72Z" fill="black"/>
<path opacity="0.1" d="M847.36 353.29L820.21 369.1C821.353 370.77 822.408 372.499 823.37 374.28C824.937 374.599 826.531 374.76 828.13 374.76C835.38 374.76 838.76 367.15 843.13 362.03C842.85 357.95 846.15 357.85 847.36 353.29Z" fill="black"/>
<path d="M827.57 373.66C840.692 373.66 851.33 363.022 851.33 349.9C851.33 336.778 840.692 326.14 827.57 326.14C814.447 326.14 803.81 336.778 803.81 349.9C803.81 363.022 814.447 373.66 827.57 373.66Z" fill="#FDC2CC"/>
<path opacity="0.1" d="M797.51 330.68C799.908 328.221 803.024 326.586 806.41 326.01C809.71 325.3 813.33 325.08 815.97 323.01C818.97 320.62 820.29 316.08 823.97 315.07C825.571 314.748 827.23 314.88 828.76 315.45C834.64 317.224 839.861 320.704 843.76 325.45C844.679 326.81 845.85 327.981 847.21 328.9C848.023 329.244 848.818 329.632 849.59 330.06C850.437 330.729 851.104 331.598 851.53 332.59C854.183 337.946 854.795 344.086 853.25 349.86C852.33 353.27 850.67 356.43 849.69 359.86C848.71 363.29 848.46 367.1 850.26 370.13C848.52 371.02 846.32 369.9 845.26 368.28C844.2 366.66 843.84 364.66 843.26 362.79C842.128 359.112 840.008 355.815 837.13 353.26C835.35 351.68 832.13 350.62 830.92 352.66C830.44 353.45 830.47 354.45 830.06 355.27C829.25 356.87 826.91 357.19 825.36 356.27C823.866 355.239 822.816 353.682 822.42 351.91C820.09 344.03 816.12 339.07 807.69 342.44C804.55 343.7 800.85 344.55 797.83 342.39C793.85 339.54 794.66 333.9 797.51 330.68Z" fill="black"/>
<path d="M797.51 330.1C799.908 327.641 803.024 326.006 806.41 325.43C809.71 324.72 813.33 324.5 815.97 322.43C818.97 320.04 820.29 315.5 823.97 314.49C825.571 314.168 827.23 314.3 828.76 314.87C834.64 316.644 839.861 320.124 843.76 324.87C844.679 326.23 845.85 327.401 847.21 328.32C848.023 328.664 848.818 329.052 849.59 329.48C850.437 330.149 851.104 331.018 851.53 332.01C854.183 337.366 854.795 343.506 853.25 349.28C852.33 352.69 850.67 355.85 849.69 359.28C848.71 362.71 848.46 366.52 850.26 369.55C848.52 370.44 846.32 369.32 845.26 367.7C844.2 366.08 843.84 364.08 843.26 362.21C842.128 358.532 840.008 355.235 837.13 352.68C835.35 351.1 832.13 350.04 830.92 352.08C830.44 352.87 830.47 353.87 830.06 354.69C829.25 356.29 826.91 356.61 825.36 355.69C823.866 354.659 822.816 353.102 822.42 351.33C820.09 343.45 816.12 338.49 807.69 341.86C804.55 343.12 800.85 343.97 797.83 341.81C793.85 338.97 794.66 333.34 797.51 330.1Z" fill="#B96B6B"/>
<path opacity="0.05" d="M854.05 384.1H842.55C842.55 384.1 819.92 395.41 819.36 394.85C818.98 394.47 815.48 395.12 813.26 395.59C813.607 394.329 813.848 393.041 813.98 391.74C821.33 391.17 839.44 378.74 839.44 378.74L853.58 376.48V383.83C853.747 383.9 853.905 383.991 854.05 384.1V384.1Z" fill="black"/>
<path opacity="0.3" d="M846.94 716C846.906 718.062 846.668 720.115 846.23 722.13C846.23 722.13 799.23 725.52 784.57 724.39C777.5 723.85 774.49 721.21 773.95 718.68C773.31 721.58 775.87 725.42 784.57 726.09C799.28 727.22 846.23 723.83 846.23 723.83C846.781 721.258 847.019 718.629 846.94 716V716Z" fill="white"/>
<g opacity="0.05">
<path opacity="0.05" d="M784.85 505.47C777.22 511.47 770.47 513.98 766.04 514.98C766.04 515.4 766.12 515.82 766.18 516.22C766.18 516.22 776.93 516.79 790.51 506.04C792.613 504.237 795.099 502.938 797.78 502.24C794.85 500.83 790.59 500.92 784.85 505.47Z" fill="black"/>
<path opacity="0.05" d="M861.62 399.4C859.62 393.4 856.62 385.9 854.33 384.12C854.188 384.008 854.034 383.914 853.87 383.84C853.87 383.84 849.19 384 849.34 384.12C851.67 385.9 853.93 392.88 855.96 398.83C857.596 403.653 858.018 408.805 857.19 413.83C855.19 425.97 850.85 450.92 845.94 472.62C839.15 502.62 831.8 495.81 828.4 503.17C825.62 509.17 827.01 517.11 827.61 519.78C830.03 520.78 832.13 521.41 833.49 521.27C833.49 521.27 830.66 511.09 834.06 503.73C837.46 496.37 844.81 503.16 851.6 473.18C856.51 451.49 860.83 426.53 862.85 414.39C863.676 409.368 863.254 404.22 861.62 399.4V399.4Z" fill="black"/>
</g>
<path d="M284.21 713.9C284.21 713.9 271.21 714.8 263.11 700.9C261.539 698.093 259.683 695.456 257.57 693.03C254.976 688.777 253.628 683.881 253.68 678.9C254.13 668.58 243.36 612.02 243.36 612.02C243.36 612.02 244.71 590.47 233.93 577.02C226.84 568.16 216.64 542.76 210.49 526.44C210.904 526.808 211.402 527.069 211.94 527.2L211.69 525.79L211.94 525.85L208.8 508.34C204.172 503.016 200.271 497.101 197.2 490.75L197.92 490.6L207.45 488.6C207.45 488.6 222.94 466.6 223.89 455.76L225.15 455.82H226.93C246.64 455.39 269.84 458.07 269.84 458.07C269.84 458 269.73 457.72 269.61 457.28C269.008 455.101 268.544 452.887 268.22 450.65L269.11 450.59L277.93 450C277.93 450 308.45 415.89 297.23 409.6C286.01 403.31 274.34 437.88 274.34 437.88L270.57 438.57L269.57 438.76C269.67 438.61 269.77 438.47 269.89 438.33C270.01 438.19 220.06 436.09 212.43 423.97C212.43 423.97 190.43 406.46 189.54 394.79C189.06 388.6 185.18 385.31 181.63 383.59C178.915 382.296 175.909 381.734 172.91 381.96L162.61 382.67L163.34 383.97H163.05C162.404 382.49 161.863 380.966 161.43 379.41H161.64C161.57 379.09 161.5 378.77 161.44 378.41C164.596 377.665 167.571 376.294 170.188 374.379C172.805 372.463 175.011 370.042 176.676 367.259C178.34 364.475 179.429 361.386 179.878 358.174C180.327 354.963 180.127 351.693 179.29 348.56C180.288 348.689 181.3 348.662 182.29 348.48C186.07 347.7 188.76 343.86 188.86 340C188.86 339.75 188.86 339.5 188.86 339.25C188.86 339.25 188.86 339.15 188.86 339.1C188.823 337.166 188.355 335.265 187.49 333.535C186.625 331.805 185.385 330.29 183.86 329.1C181.8 327.39 179.35 326.17 177.48 324.27C175.26 322 174.05 318.96 172.32 316.27C169.435 311.846 165.155 308.513 160.16 306.8C156.44 305.54 151.89 305.4 149.04 308.1C147.57 309.49 146.72 311.48 145.04 312.65C142.67 314.34 139.45 313.84 136.55 314.18C131.29 314.8 126.67 318.55 124.35 323.32C122.927 326.332 122.242 329.64 122.35 332.97C122.318 335.256 122.591 337.536 123.16 339.75C123.72 341.96 124.55 344.09 125.16 346.28C126.42 350.84 126.71 355.64 128.16 360.15C129.142 363.487 131.099 366.454 133.78 368.67L133.35 370.53C133.07 370.59 126.08 372.09 121.24 382.65C117.42 390.97 104.5 399.57 98.8199 403.04C97.7602 403.688 96.8404 404.541 96.1141 405.549C95.3878 406.557 94.8697 407.7 94.5899 408.91C94.0445 411.358 93.8026 413.863 93.8699 416.37C93.7699 421.78 94.8699 429.26 99.2499 438.75C109.13 460.3 116.31 469.75 116.31 469.75C116.31 469.75 116.86 476.35 116.89 483.31C116.89 488.49 116.51 493.65 115.41 496.23C114.48 498.41 114.19 503.98 114.21 510.33C114.21 522.52 115.41 538.43 115.41 538.43C115.41 538.43 118.84 539.08 124.16 539.86L127.47 598.05C127.886 605.096 125.625 612.04 121.14 617.49C118.809 620.349 116.121 622.897 113.14 625.07C103.71 631.8 83.5099 702.73 83.5099 702.73C83.5099 702.73 84.5099 702.79 86.1299 702.92L79.9199 720.24C79.9199 720.24 104.72 739.24 119.82 734.05C121.433 733.525 123.125 733.285 124.82 733.34C127.82 733.34 134.17 730.99 130.62 727.88C124.17 722.24 116.44 713.7 111.27 707.76C111.757 707.996 112.226 708.27 112.67 708.58V708.44L112.88 708.58C112.88 708.58 112.93 707.88 113.04 706.75L112.82 706.68C113.28 702.01 114.72 690.27 117.59 688.83C121.18 687.03 147.66 634.52 147.66 634.52L174.14 566.29C174.14 566.29 195.24 602.65 213.19 608.93V624.1C213.19 624.1 223.07 668.99 226.66 673.93C230.25 678.87 226.66 698.62 226.66 698.62C227.37 699.433 228.183 700.149 229.08 700.75L226.21 717.02C226.21 717.02 246.86 716.12 281.87 726.9C281.96 726.92 295.43 721.1 284.21 713.9ZM201.61 479.1L197.24 480.19L196.38 480.41C196.29 479.87 196.23 479.55 196.23 479.55C195.23 479.999 194.155 480.26 193.06 480.32C191.511 475.412 190.616 470.322 190.4 465.18C190.4 465.18 187.86 454.81 187.72 446.43C187.77 443.16 188.26 440.31 189.5 438.7L190.96 438.82L191.96 439.82L192.03 439.89L192.55 440.36L193.09 440.85L193.18 440.93L193.77 441.44L193.87 441.53L194.47 442.04L194.53 442.09L195.2 442.64L195.35 442.76L196.06 443.33H196.12L196.82 443.88L196.98 444L197.75 444.59L197.91 444.71L198.65 445.25L198.78 445.34L199.62 445.94L199.82 446.08L200.7 446.69L200.78 446.74L201.64 447.31L201.85 447.45L202.78 448.04L202.98 448.16L203.85 448.69L204.01 448.79L205.01 449.37L205.25 449.51L206.25 450.09H206.33L207.33 450.62L207.58 450.75L208.64 451.28L208.86 451.38L209.86 451.84L210.05 451.93L211.16 452.41L211.43 452.52L212.59 452.98C205.29 460.77 201.61 479.1 201.61 479.1Z" fill="url(#paint1_linear_820_179)"/>
<path d="M90.9003 692.22L82.5703 715.45C82.5703 715.45 105.38 732.94 120.2 729.32C122.433 728.765 124.707 728.397 127 728.22C130.07 727.99 135.35 725.76 132.09 722.91C121.57 713.71 107.55 696.62 107.55 696.62L90.9003 692.22Z" fill="#4F4D59"/>
<path d="M229.38 690.02L225.44 712.37C225.44 712.37 245.6 711.49 279.78 722.01C279.78 722.01 292.93 716.31 281.97 709.3C281.97 709.3 269.26 710.18 261.37 696.59C253.48 683 248.66 684.76 248.66 684.76L229.38 690.02Z" fill="#4F4D59"/>
<path d="M125.08 527.88L128.94 595.88C129.354 603.127 126.95 610.254 122.23 615.77C120.097 618.303 117.666 620.569 114.99 622.52C105.79 629.09 86.0703 698.33 86.0703 698.33C86.0703 698.33 108.42 699.64 114.55 704.03C114.55 704.03 115.86 686.5 119.37 684.75C122.88 683 148.73 631.75 148.73 631.75L174.6 565.1C174.6 565.1 195.2 600.6 212.73 606.73V621.63C212.73 621.63 222.37 665.45 225.88 670.27C229.39 675.09 225.88 694.37 225.88 694.37C225.88 694.37 235.96 707.08 259.18 693.49C259.18 693.49 251.73 685.16 252.18 675.08C252.63 665 242.1 609.79 242.1 609.79C242.1 609.79 243.41 588.79 232.9 575.61C222.39 562.43 204.85 512.1 204.85 512.1L192.79 486.15L125.08 527.88Z" fill="#787C9C"/>
<g opacity="0.1">
<path opacity="0.1" d="M90.2403 698.35C90.2403 698.35 109.96 629.11 119.16 622.54C121.989 620.472 124.545 618.057 126.77 615.35C131.272 609.909 133.535 602.959 133.1 595.91L129.24 527.91L193.85 488.05L192.97 486.16L125.28 527.88L129.14 595.88C129.591 602.93 127.343 609.888 122.85 615.34C120.625 618.047 118.069 620.462 115.24 622.53C106.04 629.1 86.3203 698.34 86.3203 698.34C86.3203 698.34 108.67 699.65 114.8 704.04C114.8 704.04 114.85 703.36 114.96 702.25C106.32 699.3 90.2403 698.35 90.2403 698.35Z" fill="black"/>
<path opacity="0.1" d="M230.04 694.41C230.04 694.41 233.55 675.13 230.04 670.31C226.53 665.49 216.85 621.66 216.85 621.66V606.76C199.36 600.63 178.76 565.1 178.76 565.1L177.23 569.1C183.17 578.52 199.02 601.91 212.94 606.78V621.68C212.94 621.68 222.58 665.5 226.09 670.32C229.6 675.14 226.09 694.42 226.09 694.42C226.09 694.42 230.98 700.57 241.78 699.74C233.73 699.1 230.04 694.41 230.04 694.41Z" fill="black"/>
</g>
<path d="M275.85 451.63L267.24 452.2L262.7 452.5V441.5L268.7 440.42L272.39 439.75C272.39 439.75 283.78 406.01 294.74 412.14C305.7 418.27 275.85 451.63 275.85 451.63Z" fill="#714B4F"/>
<path d="M137.79 361.36C137.79 361.36 132.09 383.27 130.34 396.86C128.59 410.45 171.09 399.49 171.09 399.49C171.09 399.49 154.88 379.77 164.09 369.25L137.79 361.36Z" fill="#714B4F"/>
<path d="M183.85 452.51L184.73 460.84L171.15 459.96L157.51 448.1L143.93 410L135.17 396.42L128.59 388.1L131.22 378.02C131.22 378.02 132.42 379.02 134.45 380.62C141.12 385.73 156.78 396.34 168.22 393.41C168.749 393.278 169.27 393.114 169.78 392.92L186.85 422.27L183.85 452.51Z" fill="#E6E6F0"/>
<path opacity="0.1" d="M134.72 375.38C134.72 375.38 127.72 376.69 122.89 387.21C119.18 395.3 106.67 403.64 101.08 407.07C100.015 407.722 99.0904 408.581 98.3622 409.596C97.6339 410.611 97.1165 411.762 96.8404 412.98C95.7104 417.98 95.2804 427.28 101.42 440.68C111.06 461.68 118.07 470.92 118.07 470.92C118.07 470.92 119.82 491.92 117.19 498.09C114.56 504.26 117.19 537.97 117.19 537.97C117.19 537.97 163.19 546.73 178.54 537.97C193.89 529.21 191.69 495.46 191.69 495.46C191.69 495.46 206.15 526.1 211.41 527.01L208.34 509.92C208.34 509.92 191.25 491.51 190.34 467.85C190.34 467.85 185.08 446.38 189.46 440.68C189.46 440.68 263.52 446.82 267.9 441.56C267.9 441.56 219.26 439.37 211.81 427.56C211.81 427.56 190.34 410.47 189.46 399.08C189.332 396.943 188.661 394.875 187.512 393.069C186.362 391.264 184.772 389.781 182.89 388.76C179.909 387.065 176.489 386.302 173.07 386.57L163.17 387.25C163.17 387.25 180.26 417.49 179.38 421.43C178.5 425.37 180.26 457.36 180.26 457.36C180.26 457.36 160.58 414.82 151.85 410C143.12 405.18 133.01 385.39 133.01 385.39L134.76 375.39" fill="black"/>
<path opacity="0.1" d="M183.85 452.51L184.73 460.84L171.15 459.96L157.51 448.1L143.93 410L135.17 396.42L128.59 388.1L131.22 378.02C131.22 378.02 132.42 379.02 134.45 380.62L133.85 384.1C133.85 384.1 143.93 403.89 152.69 408.71C161.45 413.53 181.17 456.04 181.17 456.04C181.17 456.04 179.42 424.04 180.29 420.11C180.89 417.43 173.21 402.66 168.22 393.43C168.749 393.298 169.27 393.134 169.78 392.94L186.85 422.27L183.85 452.51Z" fill="black"/>
<path opacity="0.1" d="M267.22 452.21L262.68 452.51V441.51L268.68 440.43C266.57 443.22 266.64 448.1 267.22 452.21Z" fill="black"/>
<path d="M134.72 374.1C134.72 374.1 127.72 375.41 122.89 385.93C119.18 394.02 106.67 402.36 101.08 405.79C100.015 406.442 99.0904 407.301 98.3622 408.316C97.6339 409.331 97.1165 410.482 96.8404 411.7C95.7104 416.7 95.2804 426 101.42 439.4C111.06 460.4 118.07 469.64 118.07 469.64C118.07 469.64 119.82 490.64 117.19 496.81C114.56 502.98 117.19 536.69 117.19 536.69C117.19 536.69 163.19 545.45 178.54 536.69C193.89 527.93 191.69 494.1 191.69 494.1C191.69 494.1 206.15 524.78 211.41 525.65L208.34 508.56C208.34 508.56 191.25 490.15 190.34 466.49C190.34 466.49 185.08 445.02 189.46 439.32C189.46 439.32 206.55 457.73 225.83 457.32C245.11 456.91 267.9 459.51 267.9 459.51C267.9 459.51 263.52 445.51 267.9 440.23C267.9 440.23 219.26 438.04 211.81 426.23C211.81 426.23 190.34 409.14 189.46 397.75C189.332 395.613 188.661 393.545 187.512 391.739C186.362 389.934 184.772 388.45 182.89 387.43C179.909 385.735 176.489 384.972 173.07 385.24L163.17 385.92C163.17 385.92 180.3 416.1 179.42 420.1C178.54 424.1 180.3 456.03 180.3 456.03C180.3 456.03 160.58 413.51 151.85 408.69C143.12 403.87 132.97 384.1 132.97 384.1L134.72 374.1Z" fill="#787C9C"/>
<path opacity="0.1" d="M125.08 420.1C125.08 420.1 135.6 455.6 141.73 459.98C147.86 464.36 185.11 486.71 196.07 481.45C196.07 481.45 198.7 494.6 194.76 497.66C194.76 497.66 153.9 496.06 153.57 495.91C153.57 495.91 126.84 492.4 122.46 479.26C118.08 466.12 112.82 443.76 112.82 443.76L125.08 420.1Z" fill="black"/>
<path d="M181.18 460.18C182.025 460.18 182.71 459.199 182.71 457.99C182.71 456.78 182.025 455.8 181.18 455.8C180.335 455.8 179.65 456.78 179.65 457.99C179.65 459.199 180.335 460.18 181.18 460.18Z" fill="#BA7855"/>
<path d="M185.56 475.52C186.405 475.52 187.09 474.539 187.09 473.33C187.09 472.12 186.405 471.14 185.56 471.14C184.715 471.14 184.03 472.12 184.03 473.33C184.03 474.539 184.715 475.52 185.56 475.52Z" fill="#BA7855"/>
<g opacity="0.1">
<path opacity="0.1" d="M120.26 536.21C120.26 536.21 117.63 502.47 120.26 496.33C122.89 490.19 121.14 469.16 121.14 469.16C121.14 469.16 114.14 459.96 104.49 438.92C98.3502 425.52 98.7902 416.22 99.9102 411.22C100.187 410.001 100.706 408.85 101.436 407.834C102.166 406.819 103.093 405.961 104.16 405.31C109.75 401.88 122.26 393.54 125.96 385.45C128.68 379.52 132.09 376.51 134.56 375.02L134.73 374.02C134.73 374.02 127.73 375.33 122.9 385.85C119.19 393.94 106.68 402.28 101.1 405.71C100.033 406.361 99.1064 407.219 98.3764 408.234C97.6464 409.25 97.1274 410.401 96.8502 411.62C95.7202 416.62 95.2902 425.92 101.43 439.32C111.07 460.32 118.08 469.56 118.08 469.56C118.08 469.56 119.83 490.56 117.2 496.73C114.57 502.9 117.2 536.61 117.2 536.61C117.2 536.61 150.07 542.87 169.51 539.52C149.85 541.85 120.26 536.21 120.26 536.21Z" fill="black"/>
<path opacity="0.1" d="M179.42 420.1C178.82 422.8 179.42 438.68 179.91 448.4C182.03 452.73 183.36 455.59 183.36 455.59C183.36 455.59 181.61 423.59 182.48 419.66C183.31 415.91 167.92 388.41 166.39 385.66L163.2 385.88C163.2 385.88 180.3 416.1 179.42 420.1Z" fill="black"/>
<path opacity="0.1" d="M228.94 456.89C209.66 457.33 192.57 438.89 192.57 438.89C192.053 439.606 191.677 440.414 191.46 441.27C196.46 445.98 210.46 457.65 225.87 457.27C245.15 456.83 267.94 459.46 267.94 459.46C267.94 459.46 267.85 459.17 267.71 458.67C254.83 457.358 241.886 456.763 228.94 456.89V456.89Z" fill="black"/>
<path opacity="0.1" d="M194.76 493.7C194.76 493.7 194.94 496.44 194.84 500.55C199.4 509.55 207.7 525.07 211.41 525.69L210.76 522.09C204.36 514.1 194.76 493.7 194.76 493.7Z" fill="black"/>
</g>
<path d="M207.03 489.32L197.72 491.32L190.38 492.87L194.32 481.87L197.06 481.18L201.33 480.12C201.33 480.12 207.47 449.44 219.74 451.64C232.01 453.84 207.03 489.32 207.03 489.32Z" fill="#714B4F"/>
<path opacity="0.1" d="M197.72 491.28L190.38 492.83L194.32 481.83L197.06 481.14C197.673 484.483 197.894 487.886 197.72 491.28Z" fill="black"/>
<path d="M125.08 419.2C125.08 419.2 135.6 454.7 141.73 459.08C147.86 463.46 185.11 485.81 196.07 480.55C196.07 480.55 198.7 493.7 194.76 496.76C194.76 496.76 153.9 495.16 153.57 495.01C153.57 495.01 126.84 491.5 122.46 478.36C118.08 465.22 112.82 442.86 112.82 442.86L125.08 419.2Z" fill="#787C9C"/>
<path opacity="0.1" d="M138.23 362.24C138.23 362.24 137.34 365.67 136.15 370.66C138.582 375.251 142.457 378.915 147.178 381.084C151.899 383.253 157.203 383.807 162.27 382.66C161.22 378.16 161.45 373.66 164.53 370.09L138.23 362.24Z" fill="black"/>
<path d="M156.64 382.39C169.708 382.39 180.3 371.797 180.3 358.73C180.3 345.663 169.708 335.07 156.64 335.07C143.573 335.07 132.98 345.663 132.98 358.73C132.98 371.797 143.573 382.39 156.64 382.39Z" fill="#714B4F"/>
<path opacity="0.1" d="M177.18 352.22C178.898 352.697 180.697 352.806 182.46 352.54C186.15 351.78 188.78 348.03 188.87 344.26C188.833 342.371 188.376 340.515 187.532 338.825C186.688 337.135 185.478 335.654 183.99 334.49C181.99 332.82 179.59 331.63 177.76 329.77C175.59 327.56 174.41 324.58 172.76 321.98C169.933 317.656 165.74 314.404 160.85 312.74C157.22 311.51 152.78 311.37 149.99 314.01C148.56 315.36 147.72 317.31 146.12 318.45C143.8 320.1 140.66 319.61 137.83 319.94C135.265 320.334 132.836 321.354 130.759 322.91C128.682 324.466 127.02 326.509 125.92 328.86C123.771 333.622 123.361 338.987 124.76 344.02C125.31 346.17 126.11 348.26 126.7 350.4C127.93 354.86 128.22 359.54 129.64 363.94C131.06 368.34 133.99 372.64 138.42 373.94C138.07 369.007 139.043 364.07 141.24 359.64C141.604 358.675 142.318 357.882 143.24 357.42C144.031 357.217 144.859 357.217 145.65 357.42C151.198 358.243 156.859 357.096 161.65 354.18C163.33 353.18 165.95 349.67 167.75 349.32C170.05 348.91 174.78 351.68 177.18 352.22Z" fill="black"/>
<path d="M177.18 351.34C178.898 351.817 180.697 351.926 182.46 351.66C186.15 350.9 188.78 347.15 188.87 343.38C188.833 341.491 188.376 339.635 187.532 337.945C186.688 336.255 185.478 334.774 183.99 333.61C181.99 331.94 179.59 330.75 177.76 328.89C175.59 326.68 174.41 323.7 172.76 321.1C169.933 316.776 165.74 313.524 160.85 311.86C157.22 310.63 152.78 310.49 149.99 313.13C148.56 314.48 147.72 316.43 146.12 317.57C143.8 319.22 140.66 318.73 137.83 319.06C135.265 319.454 132.836 320.474 130.759 322.03C128.682 323.586 127.02 325.629 125.92 327.98C123.781 332.73 123.37 338.079 124.76 343.1C125.31 345.25 126.11 347.34 126.7 349.48C127.93 353.94 128.22 358.62 129.64 363.02C131.06 367.42 133.99 371.72 138.42 373.02C138.07 368.087 139.043 363.15 141.24 358.72C141.604 357.755 142.318 356.962 143.24 356.5C144.031 356.297 144.859 356.297 145.65 356.5C151.198 357.323 156.859 356.176 161.65 353.26C163.33 352.26 165.95 348.75 167.75 348.4C170.05 348.03 174.78 350.81 177.18 351.34Z" fill="#503F43"/>
<path d="M743.08 105.84H226.33V723.84H743.08V105.84Z" fill="#FAFBFC"/>
<path d="M743.08 105.84H226.33V126.79H743.08V105.84Z" fill="#7983A6"/>
<path d="M296.16 357.67H673.25" stroke="#7983A6" stroke-miterlimit="10"/>
<g opacity="0.5">
<path opacity="0.5" d="M296.16 316.64H302.16" stroke="#7983A6" stroke-miterlimit="10"/>
<path opacity="0.5" d="M313.94 316.64H661.36" stroke="#7983A6" stroke-miterlimit="10" stroke-dasharray="11.78 11.78"/>
<path opacity="0.5" d="M667.25 316.64H673.25" stroke="#7983A6" stroke-miterlimit="10"/>
</g>
<g opacity="0.5">
<path opacity="0.5" d="M296.16 275.62H302.16" stroke="#7983A6" stroke-miterlimit="10"/>
<path opacity="0.5" d="M313.94 275.62H661.36" stroke="#7983A6" stroke-miterlimit="10" stroke-dasharray="11.78 11.78"/>
<path opacity="0.5" d="M667.25 275.62H673.25" stroke="#7983A6" stroke-miterlimit="10"/>
</g>
<g opacity="0.5">
<path opacity="0.5" d="M296.16 234.59H302.16" stroke="#7983A6" stroke-miterlimit="10"/>
<path opacity="0.5" d="M313.94 234.59H661.36" stroke="#7983A6" stroke-miterlimit="10" stroke-dasharray="11.78 11.78"/>
<path opacity="0.5" d="M667.25 234.59H673.25" stroke="#7983A6" stroke-miterlimit="10"/>
</g>
<g opacity="0.5">
<path opacity="0.5" d="M296.16 193.57H302.16" stroke="#7983A6" stroke-miterlimit="10"/>
<path opacity="0.5" d="M313.94 193.57H661.36" stroke="#7983A6" stroke-miterlimit="10" stroke-dasharray="11.78 11.78"/>
<path opacity="0.5" d="M667.25 193.57H673.25" stroke="#7983A6" stroke-miterlimit="10"/>
</g>
<g opacity="0.3">
<path opacity="0.3" d="M341.99 275.62H314.93V357.67H341.99V275.62Z" fill="#477DE7"/>
</g>
<path d="M417.49 234.15H390.43V358.1H417.49V234.15Z" fill="#1A374D"/>
<g opacity="0.3">
<path opacity="0.3" d="M493 316.2H465.94V358.53H493V316.2Z" fill="#477DE7"/>
</g>
<path d="M568.5 192.26H541.44V358.11H568.5V192.26Z" fill="#1A374D"/>
<g opacity="0.3">
<path opacity="0.3" d="M644 232.41H616.94V357.67H644V232.41Z" fill="#477DE7"/>
</g>
<path d="M328.46 383.41C332.315 383.41 335.44 380.285 335.44 376.43C335.44 372.575 332.315 369.45 328.46 369.45C324.606 369.45 321.48 372.575 321.48 376.43C321.48 380.285 324.606 383.41 328.46 383.41Z" fill="#1A374D"/>
<path d="M404.4 383.41C408.255 383.41 411.38 380.285 411.38 376.43C411.38 372.575 408.255 369.45 404.4 369.45C400.545 369.45 397.42 372.575 397.42 376.43C397.42 380.285 400.545 383.41 404.4 383.41Z" fill="#1A374D"/>
<path d="M480.34 383.41C484.195 383.41 487.32 380.285 487.32 376.43C487.32 372.575 484.195 369.45 480.34 369.45C476.485 369.45 473.36 372.575 473.36 376.43C473.36 380.285 476.485 383.41 480.34 383.41Z" fill="#1A374D"/>
<path d="M556.28 383.41C560.135 383.41 563.26 380.285 563.26 376.43C563.26 372.575 560.135 369.45 556.28 369.45C552.425 369.45 549.3 372.575 549.3 376.43C549.3 380.285 552.425 383.41 556.28 383.41Z" fill="#1A374D"/>
<path d="M632.22 383.41C636.075 383.41 639.2 380.285 639.2 376.43C639.2 372.575 636.075 369.45 632.22 369.45C628.365 369.45 625.24 372.575 625.24 376.43C625.24 380.285 628.365 383.41 632.22 383.41Z" fill="#1A374D"/>
<path d="M296.16 621.28H673.25" stroke="#7983A6" stroke-miterlimit="10"/>
<g opacity="0.5">
<path opacity="0.5" d="M296.16 580.25H302.16" stroke="#7983A6" stroke-miterlimit="10"/>
<path opacity="0.5" d="M313.94 580.25H661.36" stroke="#7983A6" stroke-miterlimit="10" stroke-dasharray="11.78 11.78"/>
<path opacity="0.5" d="M667.25 580.25H673.25" stroke="#7983A6" stroke-miterlimit="10"/>
</g>
<g opacity="0.5">
<path opacity="0.5" d="M296.16 539.23H302.16" stroke="#7983A6" stroke-miterlimit="10"/>
<path opacity="0.5" d="M313.94 539.23H661.36" stroke="#7983A6" stroke-miterlimit="10" stroke-dasharray="11.78 11.78"/>
<path opacity="0.5" d="M667.25 539.23H673.25" stroke="#7983A6" stroke-miterlimit="10"/>
</g>
<g opacity="0.5">
<path opacity="0.5" d="M296.16 498.2H302.16" stroke="#7983A6" stroke-miterlimit="10"/>
<path opacity="0.5" d="M313.94 498.2H661.36" stroke="#7983A6" stroke-miterlimit="10" stroke-dasharray="11.78 11.78"/>
<path opacity="0.5" d="M667.25 498.2H673.25" stroke="#7983A6" stroke-miterlimit="10"/>
</g>
<g opacity="0.5">
<path opacity="0.5" d="M296.16 457.18H302.16" stroke="#7983A6" stroke-miterlimit="10"/>
<path opacity="0.5" d="M313.94 457.18H661.36" stroke="#7983A6" stroke-miterlimit="10" stroke-dasharray="11.78 11.78"/>
<path opacity="0.5" d="M667.25 457.18H673.25" stroke="#7983A6" stroke-miterlimit="10"/>
</g>
<path d="M341.99 539.23H314.93V621.28H341.99V539.23Z" fill="#1A374D"/>
<path d="M417.49 538.79H390.43V621.71H417.49V538.79Z" fill="#1A374D"/>
<path d="M493 579.82H465.94V622.15H493V579.82Z" fill="#1A374D"/>
<path d="M568.5 455.87H541.44V621.72H568.5V455.87Z" fill="#1A374D"/>
<path d="M747 358.02H719.94V483.28H747V358.02Z" fill="#1A374D"/>
<g opacity="0.7">
<path opacity="0.7" d="M328.46 647.02C332.315 647.02 335.44 643.895 335.44 640.04C335.44 636.185 332.315 633.06 328.46 633.06C324.606 633.06 321.48 636.185 321.48 640.04C321.48 643.895 324.606 647.02 328.46 647.02Z" fill="#477DE7"/>
</g>
<g opacity="0.7">
<path opacity="0.7" d="M404.4 647.02C408.255 647.02 411.38 643.895 411.38 640.04C411.38 636.185 408.255 633.06 404.4 633.06C400.545 633.06 397.42 636.185 397.42 640.04C397.42 643.895 400.545 647.02 404.4 647.02Z" fill="#477DE7"/>
</g>
<g opacity="0.7">
<path opacity="0.7" d="M480.34 647.02C484.195 647.02 487.32 643.895 487.32 640.04C487.32 636.185 484.195 633.06 480.34 633.06C476.485 633.06 473.36 636.185 473.36 640.04C473.36 643.895 476.485 647.02 480.34 647.02Z" fill="#477DE7"/>
</g>
<g opacity="0.7">
<path opacity="0.7" d="M556.28 647.02C560.135 647.02 563.26 643.895 563.26 640.04C563.26 636.185 560.135 633.06 556.28 633.06C552.425 633.06 549.3 636.185 549.3 640.04C549.3 643.895 552.425 647.02 556.28 647.02Z" fill="#477DE7"/>
</g>
<g opacity="0.7">
<path opacity="0.7" d="M632.22 647.02C636.075 647.02 639.2 643.895 639.2 640.04C639.2 636.185 636.075 633.06 632.22 633.06C628.365 633.06 625.24 636.185 625.24 640.04C625.24 643.895 628.365 647.02 632.22 647.02Z" fill="#477DE7"/>
</g>
<path d="M188.05 721.58C189.883 720.086 191.218 718.07 191.88 715.8C192.38 713.5 191.4 710.75 189.2 709.91C186.74 708.97 184.11 710.67 182.12 712.4C180.13 714.13 177.84 716.09 175.23 715.72C176.571 714.504 177.575 712.961 178.143 711.242C178.711 709.523 178.823 707.686 178.47 705.91C178.357 705.174 178.046 704.483 177.57 703.91C176.2 702.45 173.73 703.08 172.09 704.23C166.89 707.89 165.44 714.95 165.41 721.31C164.89 719.02 165.33 716.63 165.31 714.31C165.29 711.99 164.65 709.31 162.67 708.09C161.442 707.43 160.063 707.103 158.67 707.14C156.33 707.05 153.73 707.29 152.13 709C150.13 711.12 150.66 714.69 152.39 717C154.12 719.31 156.74 720.8 159.16 722.42C161.099 723.573 162.754 725.149 164 727.03C164.146 727.291 164.267 727.565 164.36 727.85H179.01C182.292 726.177 185.333 724.068 188.05 721.58V721.58Z" fill="#1A374D"/>
<path d="M900.05 709.58C901.883 708.086 903.218 706.07 903.88 703.8C904.38 701.5 903.4 698.75 901.2 697.91C898.74 696.97 896.11 698.67 894.12 700.4C892.13 702.13 889.84 704.09 887.23 703.72C888.571 702.504 889.575 700.961 890.143 699.242C890.711 697.523 890.823 695.686 890.47 693.91C890.357 693.174 890.046 692.483 889.57 691.91C888.2 690.45 885.73 691.08 884.09 692.23C878.89 695.89 877.44 702.95 877.41 709.31C876.89 707.02 877.33 704.63 877.31 702.31C877.29 699.99 876.65 697.31 874.67 696.09C873.442 695.43 872.063 695.103 870.67 695.14C868.33 695.05 865.73 695.29 864.13 697C862.13 699.12 862.66 702.69 864.39 705C866.12 707.31 868.74 708.8 871.16 710.42C873.099 711.573 874.754 713.149 876 715.03C876.147 715.291 876.267 715.565 876.36 715.85H891.01C894.292 714.177 897.333 712.068 900.05 709.58V709.58Z" fill="#1A374D"/>
<path d="M796.45 467.56L789.14 466.71L733.14 460.2C699.15 449.46 720.65 433.1 720.65 433.1L743.28 454.6C749.81 455.91 775.41 452.86 786.88 451.39C790.32 450.94 792.49 450.64 792.49 450.64L796.45 467.56Z" fill="#FDC2CC"/>
<path d="M851.32 390.1C851.32 390.1 836.61 378.22 814.55 416.69C792.49 455.16 787.4 448.93 787.4 448.93C787.4 448.93 791.93 465.93 789.66 469.3C789.66 469.3 804.93 468.17 810.59 469.3C816.25 470.43 851.32 426.3 851.32 426.3C851.32 426.3 869.43 401.38 851.32 390.1Z" fill="#80BDF6"/>
<defs>
<linearGradient id="paint0_linear_820_179" x1="783.23" y1="730.01" x2="783.23" y2="310.58" gradientUnits="userSpaceOnUse">
<stop stop-color="#808080" stop-opacity="0.25"/>
<stop offset="0.54" stop-color="#808080" stop-opacity="0.12"/>
<stop offset="1" stop-color="#808080" stop-opacity="0.1"/>
</linearGradient>
<linearGradient id="paint1_linear_820_179" x1="66891.1" y1="345573" x2="66891.1" y2="161543" gradientUnits="userSpaceOnUse">
<stop stop-color="#808080" stop-opacity="0.25"/>
<stop offset="0.54" stop-color="#808080" stop-opacity="0.12"/>
<stop offset="1" stop-color="#808080" stop-opacity="0.1"/>
</linearGradient>
</defs>
</svg>
