<svg width="972" height="502" viewBox="0 0 972 502" fill="none" xmlns="http://www.w3.org/2000/svg">
<g opacity="0.7">
<path opacity="0.7" d="M738.41 0H232.03C227.69 0.0158864 223.534 1.75446 220.476 4.83353C217.417 7.91259 215.707 12.0801 215.72 16.42V364.94C215.707 369.28 217.417 373.447 220.476 376.526C223.534 379.606 227.69 381.344 232.03 381.36H406.19V441.52H398.25C397.16 441.524 396.081 441.743 395.076 442.163C394.07 442.584 393.158 443.199 392.39 443.972C391.622 444.746 391.014 445.663 390.6 446.671C390.187 447.68 389.976 448.76 389.98 449.85V461.92H406.19V469.06H564.25V461.92H580.46V449.85C580.464 448.76 580.253 447.68 579.84 446.671C579.426 445.663 578.818 444.746 578.05 443.972C577.282 443.199 576.369 442.584 575.364 442.163C574.358 441.743 573.28 441.524 572.19 441.52H564.72V441H564.21V381.36H738.41C742.75 381.344 746.906 379.606 749.964 376.526C753.022 373.447 754.733 369.28 754.72 364.94V16.42C754.733 12.0801 753.022 7.91259 749.964 4.83353C746.906 1.75446 742.75 0.0158864 738.41 0Z" fill="url(#paint0_linear_823_95)"/>
</g>
<path d="M563.72 371H407.72V463H563.72V371Z" fill="#BDBDBD"/>
<g opacity="0.1">
<path opacity="0.1" d="M410.79 380H560.96C562.77 372.13 564.22 367 564.22 367H407.22C407.22 367 408.83 372.11 410.79 380Z" fill="black"/>
</g>
<path d="M235.82 3H735.62C739.89 3 743.985 4.69625 747.004 7.71558C750.023 10.7349 751.72 14.83 751.72 19.1V327H219.72V19.1C219.72 14.83 221.416 10.7349 224.435 7.71558C227.455 4.69625 231.55 3 235.82 3V3Z" fill="#535461"/>
<path d="M735.62 377H235.82C231.55 377 227.455 375.304 224.435 372.284C221.416 369.265 219.72 365.17 219.72 360.9V327H751.72V360.9C751.72 365.17 750.023 369.265 747.004 372.284C743.985 375.304 739.89 377 735.62 377V377Z" fill="#BDBDBD"/>
<path d="M485.72 361C490.69 361 494.72 356.971 494.72 352C494.72 347.029 490.69 343 485.72 343C480.749 343 476.72 347.029 476.72 352C476.72 356.971 480.749 361 485.72 361Z" fill="#535461"/>
<path d="M399.89 436H571.55C573.717 436 575.795 436.861 577.327 438.393C578.859 439.925 579.72 442.003 579.72 444.17V456H391.72V444.17C391.72 443.097 391.931 442.035 392.342 441.043C392.752 440.052 393.354 439.152 394.113 438.393C394.871 437.634 395.772 437.032 396.763 436.622C397.754 436.211 398.817 436 399.89 436V436Z" fill="#BDBDBD"/>
<g opacity="0.5">
<path opacity="0.5" d="M646.22 71.12H325.22C322.734 71.12 320.72 73.1347 320.72 75.62V254.38C320.72 256.865 322.734 258.88 325.22 258.88H646.22C648.705 258.88 650.72 256.865 650.72 254.38V75.62C650.72 73.1347 648.705 71.12 646.22 71.12Z" fill="url(#paint1_linear_823_95)"/>
</g>
<path d="M641.99 72.5H329.45C326.965 72.5 324.95 74.5147 324.95 77V251.96C324.95 254.445 326.965 256.46 329.45 256.46H641.99C644.475 256.46 646.49 254.445 646.49 251.96V77C646.49 74.5147 644.475 72.5 641.99 72.5Z" fill="white"/>
<g opacity="0.5">
<path opacity="0.5" d="M445.46 98.91H419.02C416.534 98.91 414.52 100.925 414.52 103.41V126.31C414.52 128.795 416.534 130.81 419.02 130.81H445.46C447.945 130.81 449.96 128.795 449.96 126.31V103.41C449.96 100.925 447.945 98.91 445.46 98.91Z" fill="#476AE7"/>
</g>
<path d="M554.51 98.91H462.36C461.382 98.91 460.59 99.7025 460.59 100.68C460.59 101.658 461.382 102.45 462.36 102.45H554.51C555.487 102.45 556.28 101.658 556.28 100.68C556.28 99.7025 555.487 98.91 554.51 98.91Z" fill="#E0E0E0"/>
<path d="M538.36 109.55H462.36C461.382 109.55 460.59 110.342 460.59 111.32C460.59 112.298 461.382 113.09 462.36 113.09H538.36C539.337 113.09 540.13 112.298 540.13 111.32C540.13 110.342 539.337 109.55 538.36 109.55Z" fill="#E0E0E0"/>
<g opacity="0.5">
<path opacity="0.5" d="M445.46 148.53H419.02C416.534 148.53 414.52 150.545 414.52 153.03V175.93C414.52 178.415 416.534 180.43 419.02 180.43H445.46C447.945 180.43 449.96 178.415 449.96 175.93V153.03C449.96 150.545 447.945 148.53 445.46 148.53Z" fill="#476AE7"/>
</g>
<path d="M554.51 148.53H462.36C461.382 148.53 460.59 149.322 460.59 150.3C460.59 151.278 461.382 152.07 462.36 152.07H554.51C555.487 152.07 556.28 151.278 556.28 150.3C556.28 149.322 555.487 148.53 554.51 148.53Z" fill="#E0E0E0"/>
<path d="M554.51 159.16H462.36C461.382 159.16 460.59 159.952 460.59 160.93C460.59 161.908 461.382 162.7 462.36 162.7H554.51C555.487 162.7 556.28 161.908 556.28 160.93C556.28 159.952 555.487 159.16 554.51 159.16Z" fill="#E0E0E0"/>
<g opacity="0.5">
<path opacity="0.5" d="M445.46 198.15H419.02C416.534 198.15 414.52 200.165 414.52 202.65V225.55C414.52 228.035 416.534 230.05 419.02 230.05H445.46C447.945 230.05 449.96 228.035 449.96 225.55V202.65C449.96 200.165 447.945 198.15 445.46 198.15Z" fill="#476AE7"/>
</g>
<path d="M554.51 198.15H462.36C461.382 198.15 460.59 198.942 460.59 199.92C460.59 200.898 461.382 201.69 462.36 201.69H554.51C555.487 201.69 556.28 200.898 556.28 199.92C556.28 198.942 555.487 198.15 554.51 198.15Z" fill="#E0E0E0"/>
<path d="M555.33 208.78H462.18C461.302 208.78 460.59 209.492 460.59 210.37V210.73C460.59 211.608 461.302 212.32 462.18 212.32H555.33C556.208 212.32 556.92 211.608 556.92 210.73V210.37C556.92 209.492 556.208 208.78 555.33 208.78Z" fill="#E0E0E0"/>
<path d="M485.72 42V20" stroke="#E7475E" stroke-width="2" stroke-miterlimit="10"/>
<path d="M485.72 79V50.13" stroke="#E7475E" stroke-width="2" stroke-miterlimit="10"/>
<path d="M485.72 83C487.929 83 489.72 81.2091 489.72 79C489.72 76.7909 487.929 75 485.72 75C483.511 75 481.72 76.7909 481.72 79C481.72 81.2091 483.511 83 485.72 83Z" fill="#E7475E"/>
<path d="M485.72 50C487.929 50 489.72 48.2091 489.72 46C489.72 43.7909 487.929 42 485.72 42C483.511 42 481.72 43.7909 481.72 46C481.72 48.2091 483.511 50 485.72 50Z" stroke="white" stroke-miterlimit="10"/>
<path d="M485.72 42V20" stroke="#476AE7" stroke-width="2" stroke-miterlimit="10"/>
<path d="M485.72 79V50.13" stroke="#476AE7" stroke-width="2" stroke-miterlimit="10"/>
<path d="M485.72 83C487.929 83 489.72 81.2091 489.72 79C489.72 76.7909 487.929 75 485.72 75C483.511 75 481.72 76.7909 481.72 79C481.72 81.2091 483.511 83 485.72 83Z" fill="#476AE7"/>
<path d="M485.72 50C487.929 50 489.72 48.2091 489.72 46C489.72 43.7909 487.929 42 485.72 42C483.511 42 481.72 43.7909 481.72 46C481.72 48.2091 483.511 50 485.72 50Z" stroke="white" stroke-miterlimit="10"/>
<path d="M485.72 279V310" stroke="#476AE7" stroke-width="2" stroke-miterlimit="10"/>
<path d="M485.72 251V279.87" stroke="#476AE7" stroke-width="2" stroke-miterlimit="10"/>
<path d="M485.72 255C487.929 255 489.72 253.209 489.72 251C489.72 248.791 487.929 247 485.72 247C483.511 247 481.72 248.791 481.72 251C481.72 253.209 483.511 255 485.72 255Z" fill="#476AE7"/>
<path d="M305.72 168.5H274.22" stroke="#476AE7" stroke-width="2" stroke-miterlimit="10"/>
<path d="M333.22 168.5H304.35" stroke="#476AE7" stroke-width="2" stroke-miterlimit="10"/>
<path d="M333.22 172.5C335.429 172.5 337.22 170.709 337.22 168.5C337.22 166.291 335.429 164.5 333.22 164.5C331.011 164.5 329.22 166.291 329.22 168.5C329.22 170.709 331.011 172.5 333.22 172.5Z" fill="#476AE7"/>
<g opacity="0.1">
<path opacity="0.1" d="M564.22 435.5H408.22V438.5H564.22V435.5Z" fill="black"/>
</g>
<g opacity="0.7">
<path opacity="0.7" d="M179.2 367.06H106.8L107.8 358.92C128.26 340.55 141.49 291.61 141.49 291.61C141.196 291.651 140.906 291.711 140.62 291.79C128.62 294.21 120.08 299.14 114.11 305.07L116.65 283.41C154.45 275.27 169.44 225.27 169.44 225.27C145.32 230.62 130.28 238.9 120.94 246.76L124.66 214.94C150.22 223.71 176.66 177.12 176.66 177.12L175.66 176.91L176.16 176.59L175.4 176.86C147.15 170.77 132.05 186.92 127.15 193.63L127.52 190.51C126.773 192.51 126.046 194.47 125.34 196.39V196.47C123.34 201.89 121.51 207.243 119.85 212.53C118.403 217.043 117.05 221.51 115.79 225.93V225.87C115.79 225.87 114.62 197.41 84.6098 189.92C84.6098 189.92 87.7598 251.99 111.54 241.83C109.34 250.83 107.54 259.49 105.98 267.9C104.986 273.373 104.12 278.707 103.38 283.9L103.24 284.06L103.38 283.94L103.32 284.35C102.653 289.063 102.086 293.657 101.62 298.13C102.08 289.51 100.51 264.61 71.1698 241.21C71.1698 241.21 32.1698 309.75 98.6698 323.21C98.8198 323.34 98.9698 323.47 99.1098 323.59L99.0098 323.28L99.6098 323.41L99.8798 319.89C99.0781 334.581 99.1549 349.308 100.11 363.99V363.99C100.18 364.99 100.25 365.99 100.32 366.94H27.0898C-0.850233 424.73 42.6098 456.4 42.6098 456.4H162.61C209.21 397.66 179.2 367.06 179.2 367.06Z" fill="url(#paint2_linear_823_95)"/>
</g>
<path opacity="0.6" d="M102.72 389C102.72 389 83.7205 306 125.72 199" stroke="#535461" stroke-width="3" stroke-miterlimit="10"/>
<path d="M28.7196 364H175.72C175.72 364 204.72 401 159.72 456H43.7196C43.7196 456 1.71959 418 28.7196 364Z" fill="#1A374D"/>
<path d="M123.61 204.5C123.61 204.5 138.22 178.5 173.22 186.5C173.22 186.5 144.29 235.76 118.22 219.63L123.61 204.5Z" fill="#4DB6AC"/>
<path d="M114.35 232.09C114.35 232.09 113.22 205.5 84.2197 198.5C84.2197 198.5 87.2197 256.5 110.22 247L114.35 232.09Z" fill="#4DB6AC"/>
<path d="M104.87 271.36C104.87 271.36 110.22 243.5 166.22 231.5C166.22 231.5 148.36 289.12 102.29 286.81L104.87 271.36Z" fill="#4DB6AC"/>
<path d="M100.33 302.63C100.33 302.63 106.22 273.5 71.2202 246.5C71.2202 246.5 33.2202 311.17 98.7002 323.33L100.33 302.63Z" fill="#4DB6AC"/>
<path d="M99.2802 342.67C99.2802 342.67 95.2202 301.5 139.22 293.5C139.22 293.5 123.15 350.99 99.2202 361.24L99.2802 342.67Z" fill="#4DB6AC"/>
<path opacity="0.3" d="M118.72 220C118.72 220 156.72 191 172.72 186" stroke="#535461" stroke-miterlimit="10"/>
<path opacity="0.3" d="M102.22 286.5C102.22 286.5 148.22 237.5 166.22 231.5" stroke="#535461" stroke-miterlimit="10"/>
<path opacity="0.3" d="M84.2197 198.5C84.2197 198.5 112.22 236.5 110.22 246.5" stroke="#535461" stroke-miterlimit="10"/>
<path opacity="0.3" d="M71.2197 246.5C71.2197 246.5 86.2197 314.5 98.2197 323.5" stroke="#535461" stroke-miterlimit="10"/>
<path opacity="0.3" d="M99.2197 361.5C99.2197 361.5 123.22 295.5 139.22 293.5" stroke="#535461" stroke-miterlimit="10"/>
<g opacity="0.1">
<path opacity="0.1" d="M175.72 364H28.7197C28.3897 364.67 28.0697 365.34 27.7197 366H170.72C170.72 366 199.01 402.11 156.32 456H159.72C204.72 401 175.72 364 175.72 364Z" fill="black"/>
</g>
<path d="M971.44 455.6H0V488.53H971.44V455.6Z" fill="#E0E0E0"/>
<path d="M930.27 488.53H41.1602V502H930.27V488.53Z" fill="#E0E0E0"/>
<path opacity="0.1" d="M930.27 488.53H41.1602V493.02H930.27V488.53Z" fill="black"/>
<path d="M690.22 168.5H696.22" stroke="#476AE7" stroke-width="2" stroke-miterlimit="10"/>
<path d="M637.22 168.5H682.1" stroke="#476AE7" stroke-width="2" stroke-miterlimit="10"/>
<path d="M637.22 172.5C639.429 172.5 641.22 170.709 641.22 168.5C641.22 166.291 639.429 164.5 637.22 164.5C635.011 164.5 633.22 166.291 633.22 168.5C633.22 170.709 635.011 172.5 637.22 172.5Z" fill="#476AE7"/>
<path d="M686.22 172.5C688.429 172.5 690.22 170.709 690.22 168.5C690.22 166.291 688.429 164.5 686.22 164.5C684.011 164.5 682.22 166.291 682.22 168.5C682.22 170.709 684.011 172.5 686.22 172.5Z" stroke="white" stroke-miterlimit="10"/>
<g opacity="0.7">
<path opacity="0.7" d="M912.72 444.88L912.82 444.73C913.026 444.41 913.23 444.077 913.43 443.73L913.54 443.54C913.733 443.213 913.916 442.88 914.09 442.54L914.18 442.37C914.38 441.98 914.57 441.59 914.74 441.18C915.1 440.362 915.414 439.524 915.68 438.67L915.78 438.34C915.87 438.03 915.96 437.72 916.04 437.41L916.14 436.97C916.206 436.69 916.266 436.407 916.32 436.12C916.32 435.96 916.38 435.8 916.41 435.64C916.44 435.48 916.5 435.08 916.54 434.79C916.58 434.5 916.54 434.46 916.6 434.3C916.66 434.14 916.66 433.69 916.68 433.38C916.68 433.24 916.68 433.09 916.68 432.95C916.68 432.5 916.68 432.04 916.68 431.59V349H902.83V308.52H885.83V349H874.11V290.86H857.11V349H850.72V282.55H833.72V349H818.72V431.6C818.72 445.08 829.93 456 843.72 456H891.72C895.644 456.016 899.517 455.114 903.031 453.367C906.545 451.621 909.603 449.077 911.96 445.94V445.94C912.206 445.587 912.46 445.233 912.72 444.88Z" fill="url(#paint3_linear_823_95)"/>
</g>
<path d="M851.72 321H835.72V421H851.72V321Z" fill="#535461"/>
<path d="M851.72 288H835.72V321H851.72V288Z" fill="#3AD29F"/>
<path d="M873.72 329H857.72V429H873.72V329Z" fill="#535461"/>
<path d="M873.72 296H857.72V329H873.72V296Z" fill="#4D8AF0"/>
<path d="M900.72 346H884.72V446H900.72V346Z" fill="#535461"/>
<path d="M900.72 313H884.72V346H900.72V313Z" fill="#F55F44"/>
<path d="M821.72 352H913.72V431.5C913.72 437.733 911.244 443.71 906.837 448.117C902.43 452.524 896.452 455 890.22 455H845.22C838.987 455 833.01 452.524 828.603 448.117C824.196 443.71 821.72 437.733 821.72 431.5V352Z" fill="#1A374D"/>
<g opacity="0.1">
<path opacity="0.1" d="M821.72 352V356H909.72V435.5C909.728 440.755 907.967 445.859 904.72 449.99C907.526 447.794 909.795 444.988 911.355 441.784C912.914 438.58 913.723 435.063 913.72 431.5V352H821.72Z" fill="black"/>
</g>
<defs>
<linearGradient id="paint0_linear_823_95" x1="485.22" y1="469.05" x2="485.22" y2="0" gradientUnits="userSpaceOnUse">
<stop stop-color="#808080" stop-opacity="0.25"/>
<stop offset="0.54" stop-color="#808080" stop-opacity="0.12"/>
<stop offset="1" stop-color="#808080" stop-opacity="0.1"/>
</linearGradient>
<linearGradient id="paint1_linear_823_95" x1="160608" y1="48678.4" x2="160608" y2="13424.6" gradientUnits="userSpaceOnUse">
<stop stop-color="#808080" stop-opacity="0.25"/>
<stop offset="0.54" stop-color="#808080" stop-opacity="0.12"/>
<stop offset="1" stop-color="#808080" stop-opacity="0.1"/>
</linearGradient>
<linearGradient id="paint2_linear_823_95" x1="22588.2" y1="144832" x2="51827.1" y2="144832" gradientUnits="userSpaceOnUse">
<stop stop-color="#808080" stop-opacity="0.25"/>
<stop offset="0.54" stop-color="#808080" stop-opacity="0.12"/>
<stop offset="1" stop-color="#808080" stop-opacity="0.1"/>
</linearGradient>
<linearGradient id="paint3_linear_823_95" x1="92215.4" y1="98850.8" x2="101815" y2="98850.8" gradientUnits="userSpaceOnUse">
<stop stop-color="#808080" stop-opacity="0.25"/>
<stop offset="0.54" stop-color="#808080" stop-opacity="0.12"/>
<stop offset="1" stop-color="#808080" stop-opacity="0.1"/>
</linearGradient>
</defs>
</svg>
