<?xml version="1.0" standalone="no"?>
<!DOCTYPE svg PUBLIC "-//W3C//DTD SVG 20010904//EN"
 "http://www.w3.org/TR/2001/REC-SVG-20010904/DTD/svg10.dtd">
<svg version="1.0" xmlns="http://www.w3.org/2000/svg"
 width="1280.000000pt" height="720.000000pt" viewBox="0 0 1280.000000 720.000000"
 preserveAspectRatio="xMidYMid meet">

<g transform="translate(0.000000,720.000000) scale(0.100000,-0.100000)"
fill="#000000" stroke="none">
<path d="M2 7043 l3 -157 67 -12 c37 -7 109 -29 160 -50 51 -20 129 -46 173
-56 44 -11 107 -35 140 -54 33 -18 84 -38 112 -44 67 -15 129 -67 143 -121 21
-76 -10 -169 -55 -169 -9 0 -41 9 -73 21 -31 11 -113 40 -182 64 -69 24 -150
53 -180 65 -49 20 -301 110 -307 110 -2 0 -3 -206 -3 -459 l0 -458 47 -1 c35
-1 63 -11 117 -42 39 -23 101 -50 137 -60 105 -29 155 -55 215 -112 77 -73
107 -134 88 -183 -10 -24 -72 -52 -137 -60 -37 -4 -66 -14 -78 -26 -20 -20
-18 -32 19 -106 27 -52 15 -79 -40 -93 -24 -6 -57 -15 -75 -20 -65 -17 -150
-5 -224 32 l-69 34 0 -1743 c0 -959 3 -1743 8 -1743 4 0 39 9 77 19 39 11 86
22 105 25 19 3 60 10 90 16 30 6 93 13 140 16 111 7 121 9 215 36 71 20 96 22
230 19 393 -10 746 1 915 29 30 5 170 12 310 15 181 5 271 11 310 22 47 13 66
13 128 3 49 -9 116 -11 205 -6 73 3 209 9 302 12 94 3 221 14 284 25 138 23
213 24 322 3 61 -12 131 -15 259 -13 96 1 285 1 420 0 135 -1 360 3 500 9 140
6 281 8 312 5 97 -11 429 24 496 52 21 9 84 19 142 23 74 5 120 14 155 30 55
24 93 24 240 -5 126 -25 191 -29 224 -15 17 7 55 42 85 79 29 36 72 84 95 106
55 54 55 80 -4 106 -24 11 -75 22 -112 25 -38 2 -90 6 -118 8 -79 6 -178 26
-197 40 -9 7 -19 24 -22 38 -7 39 46 63 183 83 63 9 123 21 133 26 10 5 18 8
18 5 0 -3 17 2 37 11 54 22 100 27 255 28 l137 0 30 -29 c16 -15 43 -54 59
-85 40 -76 32 -101 -42 -124 -57 -18 -87 -43 -88 -73 0 -35 62 -169 92 -197
39 -35 82 -35 186 -1 97 32 155 28 287 -18 97 -34 82 -33 355 -26 20 0 125 -5
232 -13 297 -21 372 -18 447 14 68 29 84 29 187 -5 56 -18 83 -19 453 -14
l393 5 56 25 c72 33 91 33 164 -6 53 -28 73 -32 173 -38 61 -3 128 -5 147 -4
66 5 195 5 430 -1 486 -11 510 -14 692 -94 82 -36 112 -44 195 -51 54 -5 155
-19 223 -31 203 -35 208 -36 293 -38 130 -2 380 -31 405 -47 36 -24 28 -61
-42 -174 -80 -132 -94 -141 -235 -151 -232 -16 -360 -29 -430 -44 -86 -18
-179 -19 -218 -4 -17 7 -116 13 -250 15 -132 2 -272 10 -345 20 -118 16 -315
21 -368 9 -92 -21 -174 -24 -310 -11 -68 6 -94 5 -130 -9 -25 -8 -52 -18 -60
-20 -8 -2 -31 -9 -50 -14 -45 -14 -262 -7 -361 12 -125 23 -194 21 -279 -6
-41 -14 -109 -28 -150 -32 -41 -3 -104 -10 -140 -15 -124 -17 -274 -22 -325
-10 -27 6 -113 15 -191 20 -77 5 -176 14 -220 20 -73 12 -89 11 -204 -13 -299
-61 -631 -80 -775 -45 -38 9 -88 19 -110 22 -22 3 -62 10 -90 16 -69 16 -67
16 -95 27 -22 9 -70 19 -135 29 -11 1 -61 9 -110 17 -55 8 -111 11 -145 7 -97
-13 -263 -40 -350 -57 -64 -13 -143 -18 -325 -19 -187 0 -255 -4 -308 -17 -95
-24 -344 -52 -452 -51 -49 0 -180 2 -290 4 -110 3 -213 1 -230 -3 -77 -20
-208 -37 -290 -37 -49 0 -130 -7 -180 -14 -49 -8 -110 -18 -135 -21 -25 -4
-64 -10 -87 -16 -22 -5 -65 -11 -95 -14 -29 -4 -60 -9 -68 -12 -52 -18 -178
-22 -393 -11 -109 5 -145 22 -158 72 -4 15 -17 36 -29 46 -22 19 -38 24 -120
35 -25 4 -83 16 -130 28 -77 20 -108 22 -335 20 -267 -2 -395 -12 -595 -45
-247 -40 -298 -45 -475 -47 -179 -1 -212 2 -354 33 -98 22 -811 32 -973 14
l-108 -12 0 -583 0 -583 6400 0 6400 0 0 3600 0 3600 -160 0 -161 0 5 -32 c3
-18 8 -62 11 -98 3 -36 10 -103 16 -149 6 -46 9 -125 7 -175 -4 -103 -23 -147
-70 -167 -39 -16 -317 -6 -437 17 -82 15 -103 15 -159 4 -49 -10 -125 -11
-326 -4 -322 10 -439 7 -536 -11 -41 -8 -178 -30 -305 -50 -267 -41 -485 -78
-582 -101 -67 -15 -332 -100 -548 -174 -60 -21 -121 -41 -135 -45 -14 -4 -101
-31 -195 -60 -285 -90 -335 -106 -460 -141 -216 -62 -259 -73 -350 -84 -152
-19 -183 -28 -244 -70 -78 -52 -113 -58 -140 -24 -12 15 -21 31 -21 37 0 25
-56 79 -158 150 -93 65 -294 187 -308 187 -3 0 -37 22 -77 49 -86 58 -132 102
-172 165 -31 49 -111 110 -175 132 -64 24 -81 21 -350 -51 -36 -10 -99 -23
-140 -30 -41 -8 -127 -23 -190 -34 -63 -11 -153 -27 -200 -36 -106 -21 -148
-21 -168 -1 -14 14 -14 17 2 35 19 21 91 47 153 57 21 3 90 18 153 34 63 15
162 36 220 45 58 8 132 22 165 30 50 12 127 28 241 49 65 13 103 30 113 53 12
26 5 89 -10 99 -5 2 -15 28 -23 55 -14 45 -14 55 -1 86 40 94 -6 203 -86 203
-39 0 -74 -33 -103 -95 l-25 -55 -88 2 c-85 2 -90 1 -154 -35 -77 -43 -173
-67 -277 -67 -77 0 -132 -17 -168 -51 -12 -11 -64 -36 -115 -55 -106 -40 -106
-40 -180 -49 -59 -7 -202 -41 -228 -54 -17 -9 -150 -34 -275 -50 -60 -9 -102
-23 -182 -62 -117 -57 -108 -56 -271 -19 -126 29 -154 23 -239 -54 -93 -84
-127 -98 -242 -100 -91 -1 -99 1 -132 26 -40 30 -315 169 -375 188 -22 7 -71
13 -108 12 -82 -3 -102 7 -117 55 -7 21 -31 72 -53 113 -37 68 -41 81 -40 140
1 36 8 85 17 109 9 24 16 68 16 97 l0 54 -54 0 c-43 0 -56 -4 -60 -17 -3 -10
-6 -72 -7 -138 -2 -111 -10 -162 -27 -175 -4 -3 -19 -23 -33 -45 -24 -37 -40
-85 -54 -163 -20 -102 -75 -156 -213 -206 -94 -33 -126 -58 -163 -126 -75
-132 -107 -163 -206 -196 -61 -20 -103 -59 -103 -96 0 -15 9 -51 21 -80 17
-45 19 -63 13 -123 -5 -38 -8 -79 -7 -90 1 -11 4 -63 8 -115 l7 -95 -39 -65
c-22 -36 -52 -86 -66 -112 -45 -78 -93 -99 -122 -54 -12 17 -20 81 -31 232
-19 259 -20 260 -152 300 -206 63 -719 237 -747 254 -17 10 -49 41 -73 68 -35
41 -51 52 -95 63 -28 7 -56 13 -62 13 -18 1 -43 21 -45 36 -5 31 1 40 31 56
50 25 114 21 210 -14 47 -18 90 -32 95 -32 6 0 50 -16 100 -36 49 -20 127 -47
174 -59 47 -13 126 -39 177 -59 50 -19 122 -40 158 -46 37 -6 93 -24 126 -40
68 -35 135 -39 180 -13 33 20 43 55 33 110 -11 53 -6 71 28 119 25 35 29 48
23 76 -4 18 -11 38 -15 43 -4 6 -15 45 -23 88 -17 82 -36 110 -87 123 -55 15
-119 55 -151 96 -19 24 -37 45 -41 46 -5 2 -8 9 -8 17 0 7 -7 18 -15 25 -28
23 -46 74 -44 125 3 79 -7 110 -44 127 -34 16 -70 15 -115 -4 -59 -24 -80 -21
-102 14 -18 28 -20 43 -14 101 l6 67 -308 -2 -309 -3 -30 -62 c-37 -76 -41
-80 -86 -88 -33 -6 -41 -3 -77 30 -23 20 -50 56 -62 81 l-22 44 -569 0 -570 0
3 -157z m12439 -1069 c27 -24 24 -58 -5 -72 -34 -15 -225 -48 -421 -72 -93
-11 -183 -22 -200 -24 -16 -3 -52 -7 -80 -10 -27 -4 -61 -8 -75 -10 -40 -7
-251 -35 -295 -40 -22 -2 -51 -7 -65 -10 -14 -3 -45 -8 -70 -11 -25 -3 -115
-15 -200 -26 -260 -34 -330 -30 -330 21 0 15 77 89 104 99 21 8 37 31 30 42
-4 8 -3 9 4 5 7 -4 12 -15 12 -24 0 -13 2 -14 9 -4 4 8 12 12 17 10 5 -1 10 5
12 16 2 11 0 16 -6 12 -6 -3 -14 -1 -18 6 -4 7 -4 10 1 6 4 -4 17 -1 28 7 15
11 24 12 34 3 9 -7 17 -7 27 1 10 9 16 9 21 1 4 -6 4 -14 1 -17 -3 -4 -6 -1
-6 6 0 7 -5 9 -10 6 -6 -4 -8 -10 -6 -14 3 -4 -8 -5 -25 -3 -24 4 -29 1 -29
-16 0 -15 6 -20 20 -19 11 1 20 5 20 10 0 5 8 1 17 -8 16 -16 17 -16 30 0 10
14 15 16 27 6 10 -8 16 -9 21 -1 3 5 17 8 30 6 25 -5 146 -9 155 -6 3 1 25 3
50 4 25 2 56 8 68 15 12 6 22 8 22 4 0 -4 5 -1 10 9 6 10 18 14 30 11 12 -3
20 0 20 6 0 7 4 10 9 7 5 -3 12 2 15 11 6 15 8 14 20 -2 7 -10 16 -14 19 -8 3
5 25 7 49 3 24 -3 66 -2 93 1 108 16 284 37 365 45 19 2 49 6 65 9 51 8 196
20 284 23 67 2 87 0 102 -14z m-5491 -54 c0 -9 4 -20 8 -25 5 -6 14 -28 20
-51 7 -22 20 -50 30 -62 17 -20 20 -20 48 -6 16 9 37 22 46 31 23 21 72 11
131 -27 26 -16 67 -35 90 -41 30 -7 63 -30 117 -79 41 -39 80 -70 86 -70 17 0
56 -47 89 -107 23 -44 40 -61 77 -80 25 -13 55 -25 67 -26 29 -2 26 -21 -4
-37 -62 -33 -217 -8 -346 55 -94 46 -309 105 -382 105 -31 0 -78 -4 -104 -9
-53 -10 -131 -22 -553 -82 -157 -22 -339 -49 -405 -60 -159 -25 -202 -25 -232
3 -18 16 -23 32 -23 67 0 140 63 180 156 100 40 -35 52 -40 83 -36 58 8 68 15
94 77 40 92 44 93 417 166 292 57 329 72 402 164 45 57 56 65 70 56 10 -6 18
-18 18 -26z m-3820 -210 c25 -25 27 -85 4 -94 -70 -27 -127 32 -94 95 14 25
64 25 90 -1z m6540 -76 c0 -8 -10 -14 -25 -14 -38 0 -34 24 5 27 11 1 20 -4
20 -13z m-5446 -244 c94 -17 116 -25 170 -62 72 -49 167 -94 291 -138 105 -36
131 -51 140 -81 21 -66 -108 -65 -323 2 -302 94 -391 123 -420 135 -56 24
-116 143 -79 157 27 11 117 6 221 -13z m-2517 -160 c77 -27 83 -212 8 -240
-43 -16 -63 -12 -96 23 -36 38 -82 151 -73 180 12 38 99 58 161 37z m2673
-679 c274 -90 306 -116 243 -192 -15 -18 -55 -50 -88 -72 l-60 -39 -100 6
c-133 8 -145 10 -180 28 -16 8 -42 18 -56 21 -29 7 -224 122 -253 149 -11 10
-30 18 -44 18 -40 0 -62 18 -62 50 0 28 29 57 44 43 3 -3 16 2 28 13 13 10 20
15 16 10 -4 -5 0 -15 10 -22 14 -10 26 -8 73 17 120 64 148 63 429 -30z m2785
57 c22 -5 60 -19 85 -30 243 -108 252 -120 199 -266 -10 -29 -19 -63 -19 -75
0 -43 -21 -97 -42 -108 -38 -20 -119 -11 -233 27 -149 49 -167 60 -161 100 3
17 10 43 16 58 26 69 -7 136 -68 136 -36 0 -94 38 -99 65 -8 53 22 89 90 106
38 9 175 2 232 -13z m-467 -54 c12 -8 22 -24 22 -35 0 -59 -60 -94 -175 -104
-44 -3 -98 -8 -120 -10 -22 -2 -102 -7 -177 -11 -117 -6 -141 -5 -161 9 -53
35 -34 83 41 105 20 6 116 20 212 32 96 12 177 24 179 26 2 2 39 4 80 4 53 0
83 -5 99 -16z m-808 -94 c28 -28 24 -80 -6 -80 -8 0 -14 -4 -14 -9 0 -5 -11
-11 -25 -13 -25 -5 -85 24 -85 41 0 5 -3 16 -6 24 -18 48 95 78 136 37z
m-2694 -833 c16 -14 24 -29 20 -35 -12 -19 -71 -14 -91 8 -41 45 21 69 71 27z
m795 -143 c17 -8 38 -23 47 -33 18 -19 27 -42 15 -39 -5 1 -32 -2 -61 -6 -41
-6 -58 -5 -77 8 -32 21 -33 59 -2 74 31 15 43 14 78 -4z m476 -49 c103 -11
145 -62 158 -194 5 -53 12 -78 26 -89 47 -40 -3 -83 -72 -63 -40 12 -82 52
-84 80 -1 19 -61 81 -79 81 -23 0 -158 72 -186 98 l-31 30 31 25 c17 15 47 29
68 32 20 4 42 8 47 10 6 2 21 2 35 0 14 -2 53 -7 87 -10z m2903 -193 c63 -22
147 -52 185 -67 l70 -27 245 11 c135 6 338 14 451 17 202 7 206 7 211 -13 9
-35 -26 -43 -192 -47 -85 -2 -213 -7 -285 -10 -71 -3 -195 -8 -275 -11 -80 -3
-175 -12 -212 -19 -145 -31 -192 -30 -323 7 -111 32 -128 34 -225 30 -83 -4
-109 -1 -125 10 -20 15 -20 16 4 41 15 16 54 36 100 50 42 13 99 36 126 50 63
33 90 31 245 -22z m2193 -20 c22 -3 22 -29 -1 -41 -29 -15 -207 -24 -231 -12
-23 13 -19 34 10 47 17 8 168 12 222 6z m-3837 -489 c14 -74 2 -393 -17 -450
-14 -43 -43 -44 -65 -2 -18 36 -15 73 12 141 16 41 17 54 6 90 -39 136 -39
221 -1 259 27 27 56 10 65 -38z m1546 -4 c49 -59 48 -193 -2 -219 -27 -15 -87
-12 -120 5 -36 19 -77 71 -84 108 -3 20 1 33 16 45 11 9 33 30 49 45 49 49
109 55 141 16z m-26 -375 c18 -2 47 -20 67 -39 28 -28 35 -40 31 -62 -7 -40
-51 -93 -90 -109 -66 -28 -108 -14 -150 51 -31 47 -29 78 6 118 35 40 71 51
136 41z m583 -28 c39 -30 29 -83 -20 -105 -40 -18 -119 10 -143 50 -17 28 -16
28 16 45 65 34 113 37 147 10z"/>
<path d="M10500 7196 c0 -11 46 -124 59 -144 8 -13 37 -35 65 -48 28 -13 68
-34 90 -45 46 -27 97 -26 140 0 18 11 63 58 101 103 38 46 80 95 94 111 l25
27 -287 0 c-158 0 -287 -2 -287 -4z"/>
<path d="M11781 7168 c5 -18 11 -76 14 -128 5 -115 23 -177 67 -235 58 -76
122 -99 210 -75 49 14 76 59 75 125 0 33 9 71 27 113 22 53 25 71 20 115 -4
29 -13 67 -21 85 l-13 32 -194 0 -195 0 10 -32z"/>
<path d="M7494 6696 c-34 -15 -72 -58 -80 -92 -4 -15 4 -41 22 -74 61 -112
152 -144 212 -76 34 39 46 81 37 129 -21 105 -100 152 -191 113z"/>
</g>
</svg>
